# xmcd
#
# Track frame offsets:
#	200
#	15335
#	26380
#	37650
#	50747
#	62190
#	75765
#	88777
#	104427
#	113615
#	126287
#	142575
#	152250
#	166025
#	176665
#	189410
#	202662
#	213915
#	227977
#	240447
#
# Disc length: 3390 seconds
#
# Revision: 0
# Processed by: cddbd v1.5.2PL0 Copyright (c) Steve Scherf et al.
# Submitted via: EasyCDDAExtractor 9.1.0.1
#
DISCID=e30d3c14
DTITLE=The NcGlothlins - 35th Anniversary 
DYEAR=1998
DGENRE=Gospel
TTITLE0=I Knew You Would
TTITLE1=Lord, I've Been Ready
TTITLE2=Meet Me There
TTITLE3=It's Been Done
TTITLE4=He'll Come As No Surprise
TTITLE5=It's The Blood
TTITLE6=More To Go Heaven For
TTITLE7=Lord Feed Your Children
TTITLE8=What A Time
TTITLE9=Help's On The Way
TTITLE10=Beulah Land
TTITLE11=When The Clouds Roll Back
TTITLE12=We'll Never Cry Again
TTITLE13=Born Again
TTITLE14=Sounds Of That City
TTITLE15=He Loves You
TTITLE16=Until Then
TTITLE17=Celebration Of The Lamb
TTITLE18=Joy In The Morning
TTITLE19=Calvary Road
EXTD=
EXTT0=
EXTT1=
EXTT2=
EXTT3=
EXTT4=
EXTT5=
EXTT6=
EXTT7=
EXTT8=
EXTT9=
EXTT10=
EXTT11=
EXTT12=
EXTT13=
EXTT14=
EXTT15=
EXTT16=
EXTT17=
EXTT18=
EXTT19=
PLAYORDER=
